<svg id="Layer_1" data-name="Layer 1" xmlns="http://www.w3.org/2000/svg" xmlns:xlink="http://www.w3.org/1999/xlink" viewBox="0 0 16 16.06"><defs><style>.cls-1,.cls-2,.cls-3{fill:none;}.cls-2{stroke:#000;stroke-miterlimit:10;stroke-width:0.25px;}.cls-3{stroke-width:0.3px;stroke:url(#Spectrum_);}</style><linearGradient id="Spectrum_" x1="0.4" y1="10.9" x2="16" y2="10.9" gradientUnits="userSpaceOnUse"><stop offset="0" stop-color="#00a8de"/><stop offset="0.2" stop-color="#333391"/><stop offset="0.4" stop-color="#e91388"/><stop offset="0.6" stop-color="#eb2d2e"/><stop offset="0.8" stop-color="#fde92b"/><stop offset="1" stop-color="#009e54"/></linearGradient></defs><title>spotistry_Favicon</title><rect class="cls-1" width="15.85" height="16.06"/><path class="cls-2" d="M3.73,11a4.81,4.81,0,0,0,1.38,2.4c.71.65,1.55.29,2.28.53A2.42,2.42,0,0,0,9,14.07c.9-.29,2.11-2.56,2.35-3.39a17.33,17.33,0,0,1,3.12-2.61c.91-.6.45-1.6-.51-1.1-.66.34-2.86,2.25-3.21,1.89s2-4.09,2.39-4.65c.59-.88-.58-1.49-1.1-.73C11.68,4,9.56,7.76,9.21,7.62s.46-4.5.58-5.24C10,1.11,8.66.86,8.45,2.15c-.12.73-.74,5.07-1.1,5.14S5.86,3.53,5.62,2.7c-.33-1.13-1.53-.77-1.23.38.21.83,1.28,4.49.94,5.74-.2.72-.37.64-.92,0-1.47-1.76-3.09-1.9-3.5-1C1.89,8.39,3.43,9.68,3.73,11Z" transform="translate(0 0.31)"/><path class="cls-2" d="M11,9.27A4.3,4.3,0,0,0,6.51,7.35" transform="translate(0 0.31)"/><polyline class="cls-3" points="0.4 11.07 1.68 11.07 2.58 10.42 3.66 11.38 4.65 9.72 6.04 12.11 7.44 8.52 8.62 13.26 10.09 9.31 11.27 11.58 12.7 10.56 13.26 11.07 16 11.07"/></svg>