<svg id="Layer_1" data-name="Layer 1" xmlns="http://www.w3.org/2000/svg" xmlns:xlink="http://www.w3.org/1999/xlink" viewBox="0 0 1313.59 950.9"><defs><style>.cls-1,.cls-2,.cls-3,.cls-4,.cls-5{fill:none;}.cls-2,.cls-3,.cls-5{stroke:#000;stroke-width:6px;}.cls-2{stroke-linecap:round;stroke-linejoin:bevel;}.cls-3{stroke-miterlimit:10;}.cls-4{stroke-width:20px;stroke:url(#Spectrum_);}.cls-5{font-size:337.46px;font-family:AvantGardeMdITCTTBold, AvantGardeMdITCTT;font-weight:700;}.cls-6{letter-spacing:0.02em;}</style><linearGradient id="Spectrum_" x1="355.89" y1="453.27" x2="1004.59" y2="453.27" gradientUnits="userSpaceOnUse"><stop offset="0" stop-color="#00a8de"/><stop offset="0.2" stop-color="#333391"/><stop offset="0.4" stop-color="#e91388"/><stop offset="0.6" stop-color="#eb2d2e"/><stop offset="0.8" stop-color="#fde92b"/><stop offset="1" stop-color="#009e54"/></linearGradient></defs><title>spotistry_name</title><rect class="cls-1" x="339.32" width="659.13" height="667.76"/><path class="cls-2" d="M738.74,522.5c9.22,39.24,30.81,75.52,57.43,99.77,29.45,26.83,64.31,12.18,94.69,21.94,21.67,7,41.25,15.69,66.17,7.77,37.42-11.89,87.93-106.4,97.54-140.86,4.68-16.74,104.66-92,129.86-108.61,37.84-25,18.78-66.45-21.41-45.61-27.32,14.17-118.92,93.57-133.55,78.49s83.72-169.86,99.21-193.24c24.36-36.78-24.29-61.87-45.82-30.42-13.56,19.8-101.45,177.93-116.2,171.83s19-186.91,24.06-218c8.54-52.72-47-63.05-55.81-9.31-5,30.53-30.89,211-45.82,213.68s-61.52-156.16-71.57-191c-13.64-47.19-63.41-32-51.05,16,8.93,34.7,53.09,186.83,39,238.68-8.11,29.89-15.55,26.54-38.22-.61C706.26,360,639,353.88,621.71,391.85,662.17,415.67,726.22,469.23,738.74,522.5Z" transform="translate(-244.41 -54)"/><path class="cls-3" d="M1043.12,452.45c-48.91-82.15-129-86.44-188.6-80.24" transform="translate(-244.41 -54)"/><polyline class="cls-4" points="355.89 460.48 408.98 460.48 446.53 433.4 491.57 473.01 532.59 404 590.25 503.32 648.52 354.42 697.72 551.23 758.88 387.01 807.78 481.31 867.31 439.3 890.63 460.48 1004.59 460.48"/><text class="cls-5" transform="translate(3 863.54)">Spotist<tspan class="cls-6" x="1017.42" y="0">r</tspan><tspan x="1133.84" y="0">y</tspan></text></svg>